# xmcd
#
# Track frame offsets:
# 150
# 12982
# 25554
# 37346
# 48278
# 59745
# 73347
# 86124
# 101176
# 111233
# 123800
# 134202
# 145374
# 160321
# 173418
# 185640
# 192852
# 204909
# 216776
# 228223
#
# Disc length: 3212 seconds
#
#
# Revision: 0
# Processed by: cddbd v1.5.1PL0 Copyright (c) Steve Scherf et al.
# Submitted via: FreeRIP 2.90 
#
DISCID=2c0c8a14
DTITLE=Hank Snow - Hank Snow's 20 Golden Greats
DYEAR=2004
DGENRE=Country
TTITLE0=I'm Movin On
TTITLE1=The Rhumba Boogie
TTITLE2=Marriage Vow
TTITLE3=Music Makin' Mama From Memphis
TTITLE4=With This Ring I Thee Wed
TTITLE5=I Don't Hurt Anymore
TTITLE6=The Anniversary of My Broken Heart
TTITLE7=Address Unknown
TTITLE8=Down the Trail of Achin' Hearts
TTITLE9=The Golden Rocket
TTITLE10=Unwanted sign upon your heart
TTITLE11=A Fool Such as I
TTITLE12=Nobody's Child
TTITLE13=My San Antonio Mama
TTITLE14=Blue Velvet Band
TTITLE15=The Hawaiin Cowboy
TTITLE16=Paving The Highway With Tears
TTITLE17=My Two Timin' Woman
TTITLE18=Hobo Bill's Last Ride
TTITLE19=The Blind Boy's Dog
EXTD=Badger Typed it up!
EXTT0=
EXTT1=
EXTT2=
EXTT3=
EXTT4=
EXTT5=
EXTT6=
EXTT7=
EXTT8=
EXTT9=
EXTT10=
EXTT11=
EXTT12=
EXTT13=
EXTT14=
EXTT15=
EXTT16=
EXTT17=
EXTT18=
EXTT19=
PLAYORDER=
